<svg width="240" height="240" fill="none" xmlns="http://www.w3.org/2000/svg"><path d="M240 120c0 66.274-53.726 120-120 120S0 186.274 0 120 53.726 0 120 0s120 53.726 120 120Z" fill="#303549"/><path d="M184.669 116.712c0-8.177-22.248-14.998-51.813-16.572l-.002-13.028h36.915V60H68.827v27.112h36.912v13.092C76.713 101.885 55 108.636 55 116.712c0 8.077 21.713 14.828 50.739 16.507V180h27.115v-46.718c29.567-1.57 51.815-8.394 51.815-16.57Zm-64.835 8.054c-31.734 0-57.46-4.911-57.46-10.974 0-5.133 18.447-9.442 43.365-10.641v3.09h.003v12.661c4.493.252 9.214.384 14.092.384 4.491 0 8.853-.114 13.022-.323v-15.859c25.459 1.125 44.439 5.48 44.439 10.688 0 6.063-25.727 10.974-57.461 10.974Z" fill="#686C7D"/></svg>