<svg width="240" height="240" fill="none" xmlns="http://www.w3.org/2000/svg"><path d="M240 120c0 66.274-53.726 120-120 120S0 186.274 0 120 53.726 0 120 0s120 53.726 120 120Z" fill="#303549"/><path d="M96.361 130.083c5.685 0 10.294-4.609 10.294-10.294 0-5.684-4.609-10.293-10.294-10.293-5.684 0-10.293 4.609-10.293 10.293 0 5.685 4.609 10.294 10.293 10.294ZM144.011 130.083c5.685 0 10.293-4.609 10.293-10.294 0-5.684-4.608-10.293-10.293-10.293s-10.293 4.609-10.293 10.293c0 5.685 4.608 10.294 10.293 10.294ZM108.274 150.709c5.685 0 10.293-4.609 10.293-10.293 0-5.685-4.608-10.294-10.293-10.294s-10.294 4.609-10.294 10.294c0 5.684 4.609 10.293 10.294 10.293ZM132.099 109.457c5.684 0 10.293-4.609 10.293-10.294 0-5.685-4.609-10.293-10.293-10.293-5.685 0-10.294 4.608-10.294 10.293s4.609 10.294 10.294 10.294ZM132.099 150.709c5.684 0 10.293-4.609 10.293-10.293 0-5.685-4.609-10.294-10.293-10.294-5.685 0-10.294 4.609-10.294 10.294 0 5.684 4.609 10.293 10.294 10.293ZM108.274 109.457c5.685 0 10.293-4.609 10.293-10.294 0-5.685-4.608-10.293-10.293-10.293S97.98 93.478 97.98 99.163s4.609 10.294 10.294 10.294ZM172.811 125.397a5.397 5.397 0 1 0 0-10.793 5.397 5.397 0 0 0 0 10.793ZM67.561 125.397a5.397 5.397 0 1 0 0-10.793 5.397 5.397 0 0 0 0 10.793ZM48.422 123.422a3.422 3.422 0 1 0 0-6.844 3.422 3.422 0 0 0 0 6.844ZM191.95 123.422a3.422 3.422 0 1 0 0-6.844 3.422 3.422 0 0 0 0 6.844ZM146.499 79.814a5.396 5.396 0 1 0 0-10.793 5.396 5.396 0 0 0 0 10.793ZM93.874 170.98a5.397 5.397 0 1 0-.001-10.795 5.397 5.397 0 0 0 0 10.795ZM84.304 185.564a3.422 3.422 0 1 0 0-6.844 3.422 3.422 0 0 0 0 6.844ZM156.068 61.28a3.422 3.422 0 1 0 0-6.844 3.422 3.422 0 0 0 0 6.845ZM93.874 79.814a5.397 5.397 0 1 0 0-10.794 5.397 5.397 0 0 0 0 10.794ZM146.499 170.98a5.397 5.397 0 1 0-.002-10.794 5.397 5.397 0 0 0 .002 10.794ZM156.068 185.564a3.422 3.422 0 1 0 0-6.844 3.422 3.422 0 0 0 0 6.844ZM84.304 61.28a3.422 3.422 0 1 0 0-6.844 3.422 3.422 0 0 0 0 6.845ZM120.186 85.026a6.213 6.213 0 1 0 0-12.426 6.213 6.213 0 0 0 0 12.426ZM120.186 58.503a4.252 4.252 0 1 0 0-8.504 4.252 4.252 0 0 0 0 8.504ZM120.186 167.399a6.213 6.213 0 1 0 0-12.425 6.213 6.213 0 0 0 0 12.425ZM120.186 190a4.252 4.252 0 1 0 0-8.505 4.252 4.252 0 0 0 0 8.505ZM84.515 105.626a6.212 6.212 0 1 0 0-12.426 6.213 6.213 0 1 0 0 12.426ZM63.244 91.37a4.252 4.252 0 1 0 0-8.502 4.252 4.252 0 0 0 0 8.503ZM155.857 146.8a6.213 6.213 0 1 0 0-12.426 6.213 6.213 0 0 0 0 12.426ZM177.129 157.132a4.25 4.25 0 1 0 0-8.503 4.252 4.252 0 0 0 0 8.503ZM84.515 146.8a6.213 6.213 0 1 0 0-12.426 6.213 6.213 0 0 0 0 12.426ZM63.244 157.132a4.251 4.251 0 1 0 0-8.502 4.251 4.251 0 0 0 0 8.502ZM155.857 105.626a6.213 6.213 0 1 0 .001-12.426 6.213 6.213 0 0 0-.001 12.426ZM177.129 91.37a4.251 4.251 0 1 0 0-8.501 4.251 4.251 0 0 0 0 8.502Z" fill="#686C7D"/></svg>